<?xml version="1.0" encoding="utf-8"?>
<svg width="65px" height="39px" viewBox="0 0 65 39" fill="none" xmlns="http://www.w3.org/2000/svg">
  <path d="M 8.73 27.919 L 5.294 27.919 L 5.294 26.775 L 8.73 26.775 C 10.678 26.775 12.167 25.285 12.167 23.337 L 13.312 23.337 C 13.312 25.858 11.25 27.919 8.73 27.919 Z" style="fill: rgb(71, 71, 71);"/>
  <path d="M 30.267 32.273 L 22.019 32.273 C 21.675 32.273 21.446 32.044 21.446 31.701 C 21.446 31.356 21.675 31.127 22.019 31.127 L 29.694 31.127 L 29.694 6.842 L 18.698 6.842 C 12.282 6.842 7.013 12.111 7.013 18.527 L 7.013 31.241 L 12.969 31.241 C 13.312 31.241 13.542 31.471 13.542 31.814 C 13.542 32.158 13.312 32.388 12.969 32.388 L 6.439 32.388 C 6.096 32.388 5.867 32.158 5.867 31.814 L 5.867 18.527 C 5.867 11.424 11.594 5.696 18.698 5.696 L 30.267 5.696 C 30.61 5.696 30.839 5.925 30.839 6.269 L 30.839 31.814 C 30.839 32.044 30.61 32.273 30.267 32.273 Z" style="fill: rgb(71, 71, 71);"/>
  <path d="M 58.562 32.845 L 51.917 32.845 C 51.229 32.845 50.772 32.388 50.772 31.701 C 50.772 31.012 51.229 30.554 51.917 30.554 L 57.415 30.554 L 57.415 28.263 C 57.415 26.202 55.698 24.483 53.636 24.483 L 7.585 24.483 L 7.585 30.668 L 12.969 30.668 C 13.656 30.668 14.115 31.127 14.115 31.814 C 14.115 32.501 13.656 32.96 12.969 32.96 L 6.439 32.96 C 5.752 32.96 5.294 32.501 5.294 31.814 L 5.294 23.337 C 5.294 22.65 5.752 22.192 6.439 22.192 L 53.636 22.192 C 56.958 22.192 59.707 24.941 59.707 28.263 L 59.707 31.701 C 59.707 32.388 59.249 32.845 58.562 32.845 Z" style="fill: rgb(71, 71, 71);"/>
  <path d="M 42.754 32.845 L 22.134 32.845 C 21.446 32.845 20.988 32.388 20.988 31.701 C 20.988 31.012 21.446 30.554 22.134 30.554 L 42.754 30.554 C 43.441 30.554 43.898 31.012 43.898 31.701 C 43.898 32.388 43.326 32.845 42.754 32.845 Z" style="fill: rgb(71, 71, 71);"/>
  <path d="M 17.551 37.886 C 14.343 37.886 11.824 35.366 11.824 32.158 C 11.824 28.951 14.343 26.43 17.551 26.43 C 20.759 26.43 23.279 28.951 23.279 32.158 C 23.279 35.366 20.645 37.886 17.551 37.886 Z M 17.551 28.721 C 15.604 28.721 14.115 30.211 14.115 32.158 C 14.115 34.105 15.604 35.594 17.551 35.594 C 19.498 35.594 20.988 34.105 20.988 32.158 C 20.988 30.325 19.385 28.721 17.551 28.721 Z" style="fill: rgb(71, 71, 71);"/>
  <path d="M 47.335 37.886 C 44.128 37.886 41.607 35.366 41.607 32.158 C 41.607 28.951 44.128 26.43 47.335 26.43 C 50.542 26.43 53.063 28.951 53.063 32.158 C 53.063 35.366 50.428 37.886 47.335 37.886 Z M 47.335 28.721 C 45.388 28.721 43.898 30.211 43.898 32.158 C 43.898 34.105 45.388 35.594 47.335 35.594 C 49.282 35.594 50.772 34.105 50.772 32.158 C 50.772 30.325 49.168 28.721 47.335 28.721 Z" style="fill: rgb(71, 71, 71);"/>
  <path d="M 30.267 6.842 L 16.52 6.842 C 16.291 6.842 16.062 6.612 15.948 6.383 C 15.948 6.155 16.062 5.811 16.291 5.696 L 27.633 1.229 C 27.976 1.114 28.32 1.114 28.548 1.114 C 29.808 1.114 30.839 2.146 30.839 3.406 L 30.839 6.269 C 30.839 6.612 30.61 6.842 30.267 6.842 Z M 19.613 5.696 L 29.694 5.696 L 29.694 3.406 C 29.694 2.603 28.893 2.031 28.09 2.259 L 19.613 5.696 Z" style="fill: rgb(71, 71, 71);"/>
  <path d="M 17.093 28.034 C 16.749 28.034 16.52 27.805 16.52 27.462 L 16.52 6.842 C 16.52 6.498 16.749 6.269 17.093 6.269 C 17.436 6.269 17.666 6.498 17.666 6.842 L 17.666 27.462 C 17.666 27.805 17.323 28.034 17.093 28.034 Z" style="fill: rgb(71, 71, 71);"/>
</svg>